<svg xmlns="http://www.w3.org/2000/svg" viewBox="0 0 32 32" width="32" height="32" shape-rendering="crispEdges"><path fill="#14161e" d="M16 9h3v1h-3zM13 10h3v1h-3zM19 10h3v1h-3zM11 11h2v1h-2zM22 11h2v1h-2zM10 12h1v1h-1zM24 12h1v1h-1zM9 13h1v1h-1zM25 13h1v1h-1zM7 14h2v1h-2zM26 14h1v1h-1zM4 15h3v1h-3zM8 15h1v1h-1zM26 15h1v1h-1zM3 16h1v1h-1zM27 16h2v1h-2zM3 17h1v1h-1zM29 17h1v1h-1zM2 18h1v1h-1zM30 18h1v1h-1zM1 19h1v1h-1zM29 19h1v1h-1zM2 20h2v1h-2zM27 20h2v1h-2zM4 21h3v1h-3zM8 21h2v1h-2zM25 21h2v1h-2zM7 22h1v1h-1zM9 22h1v1h-1zM25 22h1v1h-1zM8 23h1v1h-1zM26 23h1v1h-1zM9 24h1v1h-1zM15 24h1v1h-1zM19 24h1v1h-1zM25 24h1v1h-1zM10 25h2v1h-2zM13 25h2v1h-2zM16 25h3v1h-3zM20 25h2v1h-2zM23 25h2v1h-2zM12 26h1v1h-1zM22 26h1v1h-1z"/><path fill="#1e4a28" d="M16 10h3v1h-3zM13 11h9v1h-9zM11 12h6v1h-6zM18 12h6v1h-6zM10 13h4v1h-4zM21 13h4v1h-4zM9 14h4v1h-4zM22 14h4v1h-4zM9 15h3v1h-3zM15 15h2v1h-2zM23 15h3v1h-3zM11 16h1v1h-1zM15 16h2v1h-2zM19 16h2v1h-2zM23 16h3v1h-3zM19 17h2v1h-2zM11 19h1v1h-1zM23 19h1v1h-1zM11 20h2v1h-2zM22 20h4v1h-4zM10 21h2v1h-2zM13 21h1v1h-1zM21 21h1v1h-1zM23 21h2v1h-2zM15 22h2v1h-2zM18 22h2v1h-2zM16 23h3v1h-3zM16 24h3v1h-3z"/><path fill="#43b25b" d="M17 12h1v1h-1zM14 13h7v1h-7zM13 14h9v1h-9zM7 15h1v1h-1zM12 15h3v1h-3zM17 15h6v1h-6zM4 16h2v1h-2zM7 16h4v1h-4zM12 16h3v1h-3zM17 16h2v1h-2zM21 16h2v1h-2zM26 16h1v1h-1zM4 17h1v1h-1zM8 17h11v1h-11zM21 17h8v1h-8zM3 18h1v1h-1zM5 18h1v1h-1zM7 18h23v1h-23zM5 19h6v1h-6zM12 19h11v1h-11zM24 19h5v1h-5zM4 20h1v1h-1zM6 20h5v1h-5zM13 20h9v1h-9zM26 20h1v1h-1zM7 21h1v1h-1zM12 21h1v1h-1zM14 21h7v1h-7zM22 21h1v1h-1zM10 22h5v1h-5zM17 22h1v1h-1zM20 22h5v1h-5zM9 23h7v1h-7zM19 23h7v1h-7zM10 24h5v1h-5zM20 24h5v1h-5zM12 25h1v1h-1zM22 25h1v1h-1z"/><path fill="#f4f7ff" d="M6 16h1v1h-1zM5 17h1v1h-1zM7 17h1v1h-1zM6 18h1v1h-1z"/><path fill="#1a1a2a" d="M6 17h1v1h-1z"/><path fill="#ff9a42" d="M4 18h1v1h-1zM2 19h3v1h-3zM5 20h1v1h-1z"/></svg>
