<svg xmlns="http://www.w3.org/2000/svg" viewBox="0 0 32 32" width="32" height="32" shape-rendering="crispEdges"><path fill="#14161e" d="M22 7h1v1h-1zM20 8h2v1h-2zM23 8h1v1h-1zM18 9h2v1h-2zM23 9h1v1h-1zM17 10h1v1h-1zM23 10h1v1h-1zM15 11h2v1h-2zM23 11h1v1h-1zM13 12h2v1h-2zM23 12h1v1h-1zM8 13h1v1h-1zM10 13h3v1h-3zM23 13h1v1h-1zM30 13h1v1h-1zM7 14h1v1h-1zM9 14h1v1h-1zM23 14h1v1h-1zM26 14h4v1h-4zM31 14h1v1h-1zM6 15h1v1h-1zM23 15h3v1h-3zM30 15h1v1h-1zM6 16h1v1h-1zM30 16h1v1h-1zM7 17h1v1h-1zM23 17h1v1h-1zM30 17h1v1h-1zM8 18h2v1h-2zM23 18h2v1h-2zM29 18h1v1h-1zM10 19h3v1h-3zM23 19h1v1h-1zM25 19h2v1h-2zM29 19h1v1h-1zM13 20h2v1h-2zM23 20h1v1h-1zM27 20h1v1h-1zM29 20h1v1h-1zM15 21h2v1h-2zM23 21h1v1h-1zM28 21h1v1h-1zM17 22h1v1h-1zM23 22h1v1h-1zM18 23h2v1h-2zM23 23h1v1h-1zM20 24h2v1h-2zM23 24h1v1h-1zM22 25h1v1h-1z"/><path fill="#6a9fc8" d="M22 8h1v1h-1zM20 9h3v1h-3zM18 10h5v1h-5zM17 11h6v1h-6zM15 12h8v1h-8zM13 13h10v1h-10zM10 14h13v1h-13zM10 15h6v1h-6zM20 15h3v1h-3zM7 16h1v1h-1zM9 16h7v1h-7zM20 16h2v1h-2zM8 17h15v1h-15zM10 18h13v1h-13zM13 19h10v1h-10zM15 20h8v1h-8zM17 21h6v1h-6zM18 22h5v1h-5zM20 23h3v1h-3zM22 24h1v1h-1z"/><path fill="#f4f7ff" d="M8 14h1v1h-1zM7 15h1v1h-1zM9 15h1v1h-1zM8 16h1v1h-1z"/><path fill="#2a5080" d="M30 14h1v1h-1zM16 15h4v1h-4zM26 15h4v1h-4zM16 16h4v1h-4zM22 16h8v1h-8zM24 17h6v1h-6zM25 18h4v1h-4zM27 19h2v1h-2zM28 20h1v1h-1z"/><path fill="#1a1a2a" d="M8 15h1v1h-1z"/></svg>
